<svg width="81" height="19" viewBox="0 0 81 19" fill="none" xmlns="http://www.w3.org/2000/svg">
<path d="M4.912 1.216C4.432 1.216 4.032 1.36533 3.712 1.664C3.392 1.952 3.232 2.36267 3.232 2.896C3.232 3.42934 3.36534 3.90934 3.632 4.336C3.90934 4.752 4.24534 5.10934 4.64 5.408C5.04534 5.696 5.48267 6.01067 5.952 6.352C6.432 6.69334 6.86934 7.01867 7.264 7.328C7.66934 7.62667 8.00534 8 8.272 8.448C8.54934 8.896 8.688 9.37067 8.688 9.872C8.688 10.864 8.28267 11.7067 7.472 12.4C6.66134 13.0827 5.59467 13.424 4.272 13.424C2.96 13.424 1.92 13.1413 1.152 12.576C0.384002 12.0107 1.96695e-06 11.3707 1.96695e-06 10.656C1.96695e-06 9.94134 0.213335 9.38667 0.640002 8.992C1.06667 8.58667 1.616 8.384 2.288 8.384C2.48 8.384 2.66134 8.40534 2.832 8.448C2.50134 8.93867 2.336 9.472 2.336 10.048C2.336 10.6133 2.512 11.104 2.864 11.52C3.216 11.9253 3.68 12.128 4.256 12.128C4.84267 12.128 5.33334 11.9787 5.728 11.68C6.12267 11.3707 6.32 10.9813 6.32 10.512C6.32 10.032 6.18667 9.61067 5.92 9.248C5.65334 8.88534 5.32267 8.576 4.928 8.32C4.53334 8.05334 4.10134 7.75467 3.632 7.424C3.16267 7.08267 2.73067 6.74133 2.336 6.4C1.94134 6.05867 1.61067 5.62667 1.344 5.104C1.07734 4.57067 0.944002 3.98934 0.944002 3.36C0.944002 2.34667 1.312 1.54133 2.048 0.944001C2.784 0.336001 3.776 0.0320015 5.024 0.0320015C6.272 0.0320015 7.216 0.314668 7.856 0.880001C8.50667 1.43467 8.832 2.032 8.832 2.672C8.832 3.30134 8.62934 3.83467 8.224 4.272C7.81867 4.69867 7.26934 4.912 6.576 4.912C6.34134 4.912 6.112 4.89067 5.888 4.848C6.41067 4.29333 6.672 3.712 6.672 3.104C6.672 2.48534 6.50134 2.016 6.16 1.696C5.81867 1.376 5.40267 1.216 4.912 1.216ZM14.0305 5.504C13.9772 5.888 13.8652 6.55467 13.6945 7.504C13.3318 9.52 13.1505 11.0133 13.1505 11.984C13.1505 12.9547 13.2252 13.6053 13.3745 13.936C12.5532 13.7227 11.9878 13.3973 11.6785 12.96C11.3692 12.512 11.2145 11.8827 11.2145 11.072C11.2145 10.3573 11.3265 9.38134 11.5505 8.144C11.7745 6.896 11.9185 6.05334 11.9825 5.616C11.4278 5.712 10.8358 5.89867 10.2065 6.176C10.1852 5.94134 10.1745 5.76534 10.1745 5.648C10.1745 5.08267 10.3452 4.69867 10.6865 4.496C11.0278 4.28267 11.5185 4.17067 12.1585 4.16C12.2332 3.36 12.2705 2.784 12.2705 2.432C12.2705 2.08 12.2652 1.78667 12.2545 1.552C12.2545 1.31734 12.2545 1.14133 12.2545 1.024C12.9585 1.09867 13.4705 1.312 13.7905 1.664C14.1105 2.00533 14.2705 2.496 14.2705 3.136C14.2705 3.392 14.2438 3.74933 14.1905 4.208C15.0865 4.18667 15.7425 4.01067 16.1585 3.68C16.1798 3.89334 16.1905 4.05334 16.1905 4.16C16.1905 4.672 16.0998 5.02933 15.9185 5.232C15.7372 5.424 15.4332 5.52 15.0065 5.52C14.5798 5.52 14.2545 5.51467 14.0305 5.504ZM19.2584 7.824C19.6424 6.43734 20.101 5.41867 20.6344 4.768C21.1784 4.10667 21.6797 3.776 22.1384 3.776C22.6077 3.776 22.9597 3.952 23.1944 4.304C23.429 4.64534 23.5464 5.09334 23.5464 5.648C23.5464 6.192 23.381 6.69334 23.0504 7.152C22.7304 7.61067 22.2877 7.84 21.7224 7.84C21.573 7.84 21.397 7.79734 21.1944 7.712C21.525 7.296 21.6904 6.79467 21.6904 6.208C21.6904 5.86667 21.5517 5.696 21.2744 5.696C21.0717 5.696 20.853 5.84 20.6184 6.128C20.3837 6.40533 20.1597 6.79467 19.9464 7.296C19.733 7.78667 19.5517 8.42134 19.4024 9.2C19.2637 9.968 19.1944 10.7893 19.1944 11.664C19.1944 11.7707 19.221 12.224 19.2744 13.024C18.933 13.0453 18.7144 13.056 18.6184 13.056C18.0104 13.056 17.573 12.9493 17.3064 12.736C17.0397 12.5227 16.9064 12.1707 16.9064 11.68C16.9064 11.4667 17.0184 10.6453 17.2424 9.216C17.4664 7.78667 17.5784 6.65067 17.5784 5.808C17.5784 4.95467 17.4877 4.17067 17.3064 3.456C18.085 3.70133 18.629 4.05333 18.9384 4.512C19.2477 4.96 19.4024 5.488 19.4024 6.096C19.4024 6.69334 19.3544 7.26934 19.2584 7.824ZM27.8486 9.088C27.3366 9.088 26.8353 9.02934 26.3446 8.912C26.334 9.01867 26.3286 9.184 26.3286 9.408C26.3286 10.2933 26.494 10.96 26.8246 11.408C27.1553 11.856 27.55 12.08 28.0086 12.08C28.4673 12.08 28.9046 11.9413 29.3206 11.664C29.7366 11.3867 30.0993 11.0027 30.4086 10.512C30.7926 10.5973 30.9846 10.7947 30.9846 11.104C30.046 12.544 28.8353 13.264 27.3526 13.264C26.4566 13.264 25.6726 12.9227 25.0006 12.24C24.3286 11.5467 23.9926 10.5867 23.9926 9.36C23.9926 8.44267 24.1686 7.57334 24.5206 6.752C24.8726 5.92 25.4326 5.22134 26.2006 4.656C26.9686 4.08 27.8166 3.792 28.7446 3.792C29.6833 3.792 30.3713 4.00534 30.8086 4.432C31.246 4.85867 31.4646 5.41867 31.4646 6.112C31.4646 7.11467 31.1126 7.86133 30.4086 8.352C29.7153 8.84267 28.862 9.088 27.8486 9.088ZM28.5206 4.784C27.9766 4.784 27.518 5.12 27.1446 5.792C26.7713 6.464 26.526 7.28 26.4086 8.24H26.6486C27.5766 8.24 28.2593 8 28.6966 7.52C29.1446 7.04 29.3686 6.464 29.3686 5.792C29.3686 5.51467 29.294 5.28 29.1446 5.088C29.006 4.88533 28.798 4.784 28.5206 4.784ZM35.1218 10C35.1218 10.5013 35.2124 10.912 35.3938 11.232C35.5858 11.5413 35.8524 11.696 36.1938 11.696C36.6951 11.696 37.1698 11.4027 37.6178 10.816C38.0764 10.2293 38.4391 9.47734 38.7058 8.56C38.9831 7.64267 39.1218 6.77334 39.1218 5.952C39.1218 5.12 39.0898 4.448 39.0258 3.936C39.3458 3.91467 39.5698 3.904 39.6978 3.904C40.2418 3.904 40.6524 4.00533 40.9298 4.208C41.2071 4.41067 41.3458 4.77334 41.3458 5.296C41.3458 5.49867 41.2178 6.32534 40.9618 7.776C40.7058 9.216 40.5778 10.3733 40.5778 11.248C40.5778 12.112 40.7431 12.88 41.0738 13.552C40.2738 13.4133 39.6871 13.12 39.3138 12.672C38.9404 12.2133 38.7538 11.5573 38.7538 10.704C38.7538 10.5547 38.7751 10.2667 38.8178 9.84C38.5298 10.8533 38.0178 11.6693 37.2818 12.288C36.5458 12.9067 35.8204 13.216 35.1058 13.216C34.4018 13.216 33.8311 12.9547 33.3938 12.432C32.9671 11.8987 32.7538 11.1467 32.7538 10.176C32.7538 9.20534 32.9244 8.26667 33.2658 7.36C33.6178 6.44267 34.1404 5.66934 34.8338 5.04C35.5271 4.4 36.3004 4.08 37.1538 4.08C37.6444 4.08 38.1458 4.19734 38.6578 4.432C37.5804 4.816 36.7218 5.57333 36.0818 6.704C35.4418 7.824 35.1218 8.92267 35.1218 10ZM50.334 11.328C50.334 11.8613 50.366 12.4267 50.43 13.024C50.0887 13.0453 49.8647 13.056 49.758 13.056C49.1607 13.056 48.7287 12.9547 48.462 12.752C48.1953 12.5387 48.062 12.2293 48.062 11.824C48.062 11.4187 48.174 10.5867 48.398 9.328C48.6327 8.05867 48.75 7.09867 48.75 6.448C48.75 5.78667 48.5367 5.456 48.11 5.456C47.8753 5.456 47.6193 5.6 47.342 5.888C47.0647 6.16534 46.8033 6.54934 46.558 7.04C46.3127 7.52 46.1047 8.13867 45.934 8.896C45.774 9.65334 45.694 10.384 45.694 11.088C45.694 11.7813 45.726 12.4267 45.79 13.024C45.4487 13.0453 45.2247 13.056 45.118 13.056C44.5207 13.056 44.0887 12.9547 43.822 12.752C43.5553 12.5387 43.422 12.1867 43.422 11.696C43.422 11.5787 43.5287 10.784 43.742 9.312C43.966 7.84 44.078 6.67734 44.078 5.824C44.078 4.96 43.9873 4.17067 43.806 3.456C44.5953 3.70133 45.1447 4.05333 45.454 4.512C45.7633 4.97067 45.918 5.536 45.918 6.208C45.918 6.54934 45.8807 6.98134 45.806 7.504C46.1687 6.43734 46.67 5.552 47.31 4.848C47.9607 4.144 48.5847 3.792 49.182 3.792C49.79 3.792 50.2273 4.016 50.494 4.464C50.7713 4.912 50.91 5.55733 50.91 6.4C51.3153 5.62134 51.7793 4.992 52.302 4.512C52.8247 4.032 53.3047 3.792 53.742 3.792C54.3927 3.792 54.8513 3.98934 55.118 4.384C55.3953 4.768 55.534 5.296 55.534 5.968C55.534 6.62934 55.4273 7.56267 55.214 8.768C55.0113 9.97334 54.91 10.8533 54.91 11.408C54.91 11.952 54.9793 12.352 55.118 12.608C55.2567 12.8533 55.4913 13.0667 55.822 13.248C55.6833 13.2587 55.486 13.264 55.23 13.264C54.334 13.264 53.694 13.1253 53.31 12.848C52.9367 12.5707 52.75 12.0853 52.75 11.392C52.75 10.9973 52.8567 10.2293 53.07 9.088C53.2833 7.936 53.39 7.07734 53.39 6.512C53.39 5.808 53.1767 5.456 52.75 5.456C52.43 5.456 52.0833 5.69067 51.71 6.16C51.3473 6.61867 51.0273 7.31734 50.75 8.256C50.4727 9.184 50.334 10.208 50.334 11.328ZM60.7265 5.072C60.7265 5.232 60.5932 6.07467 60.3265 7.6C60.0705 9.11467 59.9372 10.368 59.9265 11.36C59.9265 12.3413 59.9905 12.976 60.1185 13.264C59.2865 13.0507 58.7265 12.7307 58.4385 12.304C58.1505 11.8667 58.0065 11.232 58.0065 10.4C58.0065 9.952 58.0918 9.14134 58.2625 7.968C58.4332 6.79467 58.5185 5.88267 58.5185 5.232C58.5185 4.58133 58.4865 4.08 58.4225 3.728C58.6572 3.70667 58.8758 3.696 59.0785 3.696C59.6972 3.696 60.1238 3.80267 60.3585 4.016C60.6038 4.21867 60.7265 4.57067 60.7265 5.072ZM60.9665 2.288C60.6678 2.33067 60.4065 2.352 60.1825 2.352C59.0838 2.352 58.5345 1.968 58.5345 1.2C58.5345 0.922668 58.6145 0.544001 58.7745 0.0640011C59.0732 0.021335 59.3345 1.90735e-06 59.5585 1.90735e-06C60.6572 1.90735e-06 61.2065 0.384002 61.2065 1.152C61.2065 1.42933 61.1265 1.808 60.9665 2.288ZM68.9231 3.792C69.5525 3.792 70.0005 3.98934 70.2671 4.384C70.5445 4.768 70.6831 5.296 70.6831 5.968C70.6831 6.62934 70.5765 7.56267 70.3631 8.768C70.1605 9.97334 70.0591 10.8533 70.0591 11.408C70.0591 11.952 70.1285 12.352 70.2671 12.608C70.4058 12.8533 70.6405 13.0667 70.9711 13.248C70.8325 13.2587 70.6351 13.264 70.3791 13.264C69.4831 13.264 68.8431 13.1253 68.4591 12.848C68.0858 12.5707 67.8991 12.0853 67.8991 11.392C67.8991 10.9973 68.0058 10.2293 68.2191 9.088C68.4325 7.936 68.5391 7.07734 68.5391 6.512C68.5391 5.808 68.3258 5.456 67.8991 5.456C67.6538 5.456 67.3765 5.6 67.0671 5.888C66.7578 6.176 66.4591 6.57067 66.1711 7.072C65.8831 7.56267 65.6431 8.19734 65.4511 8.976C65.2591 9.75467 65.1631 10.5333 65.1631 11.312C65.1631 12.08 65.1951 12.6507 65.2591 13.024C64.9178 13.0453 64.6938 13.056 64.5871 13.056C63.9791 13.056 63.5418 12.9493 63.2751 12.736C63.0085 12.5227 62.8751 12.1707 62.8751 11.68C62.8751 11.4667 62.9871 10.6453 63.2111 9.216C63.4351 7.78667 63.5471 6.65067 63.5471 5.808C63.5471 4.95467 63.4565 4.17067 63.2751 3.456C64.0538 3.70133 64.5978 4.05333 64.9071 4.512C65.2165 4.96 65.3711 5.47734 65.3711 6.064C65.3711 6.64 65.3071 7.312 65.1791 8.08C65.5311 6.88533 66.0858 5.872 66.8431 5.04C67.6005 4.208 68.2938 3.792 68.9231 3.792ZM77.7068 3.952C77.9094 3.952 78.0641 3.96267 78.1708 3.984C78.4481 4.03734 78.5974 4.23467 78.6188 4.576C77.4561 4.82134 76.5281 5.45067 75.8348 6.464C75.1521 7.47733 74.8108 8.53334 74.8108 9.632C74.8108 10.912 75.2001 11.552 75.9788 11.552C76.4481 11.552 76.8694 11.296 77.2428 10.784C77.9041 9.856 78.3681 8.40534 78.6348 6.432C78.8374 4.87467 79.2161 3.872 79.7708 3.424C80.0374 3.2 80.3681 3.024 80.7628 2.896C80.6134 4.02667 80.5388 4.88 80.5388 5.456C80.5388 9.72267 80.0801 12.928 79.1628 15.072C78.2561 17.216 76.7734 18.288 74.7148 18.288C73.8828 18.288 73.2321 18.064 72.7628 17.616C72.2934 17.1787 72.0588 16.6933 72.0588 16.16C72.0588 15.6373 72.2241 15.2053 72.5548 14.864C72.8854 14.5333 73.3494 14.368 73.9468 14.368C74.1921 14.368 74.4428 14.4213 74.6988 14.528C74.2934 14.7947 74.0908 15.2053 74.0908 15.76C74.0908 16.1333 74.2028 16.4533 74.4268 16.72C74.6508 16.9973 74.9228 17.136 75.2428 17.136C75.5734 17.136 75.8614 17.0667 76.1068 16.928C76.3521 16.8 76.6028 16.5653 76.8588 16.224C77.1148 15.8827 77.3388 15.456 77.5308 14.944C77.9681 13.76 78.2081 12.144 78.2508 10.096C77.9414 11.0133 77.4721 11.7493 76.8428 12.304C76.2134 12.8587 75.5734 13.136 74.9228 13.136C74.1014 13.136 73.4721 12.8267 73.0348 12.208C72.6081 11.5787 72.3948 10.7787 72.3948 9.808C72.3948 8.67734 72.6668 7.62667 73.2108 6.656C73.8188 5.536 74.6614 4.75734 75.7388 4.32C76.3361 4.07467 76.9921 3.952 77.7068 3.952Z" fill="#7AC5E5"/>
</svg>
